<?xml version="1.0" encoding="UTF-8"?>
<svg version="1.1" xmlns="http://www.w3.org/2000/svg" width="645" height="373">
<path d="M0 0 C27.69486731 -0.07014489 55.38972126 -0.12301506 83.08465958 -0.15543652 C95.9444908 -0.17089185 108.80426675 -0.19195594 121.6640625 -0.22631836 C132.87533727 -0.25626147 144.08657201 -0.27558469 155.29788566 -0.28226548 C161.23174481 -0.2861694 167.16548945 -0.29531649 173.09931183 -0.31719017 C178.69051662 -0.33763285 184.2815603 -0.34381807 189.87279892 -0.33932304 C191.91894025 -0.34014477 193.96508726 -0.34606379 196.01119614 -0.35761642 C223.67657239 -0.50608737 223.67657239 -0.50608737 235 9 C244.7167785 18.7167785 246.21094155 31.59709804 246.27571106 44.77470398 C246.27418803 46.16727495 246.26916517 47.55984625 246.26074219 48.95239258 C246.24999769 51.06295367 246.26071016 53.1726673 246.2734375 55.28320312 C246.28824993 68.14161737 245.20343893 79.88874074 236.4375 89.9375 C234.34088863 91.71155577 232.20414941 93.3643627 230 95 C230.556875 95.25652344 231.11375 95.51304687 231.6875 95.77734375 C239.70425466 99.79926289 245.91262137 105.2858191 249.19921875 113.8125 C252.04530655 122.8598085 251.59565786 132.30247782 251.52148438 141.69897461 C251.50006942 144.9270359 251.52134368 148.15286634 251.546875 151.38085938 C251.58163571 177.59510951 251.58163571 177.59510951 243.53515625 187.51171875 C235.12461493 195.66544965 224.27850287 199.12997346 212.74211121 199.12025452 C210.85123779 199.12231651 210.85123779 199.12231651 208.92216492 199.12442017 C207.53298926 199.12088149 206.14381385 199.11724669 204.75463867 199.11352539 C203.28593955 199.1132432 201.8172403 199.11340188 200.34854126 199.1139679 C196.36754696 199.11425461 192.38658283 199.1083782 188.40559554 199.10139394 C184.24291751 199.09513947 180.08023877 199.09455494 175.91755676 199.09336853 C168.03766389 199.09026139 160.1577849 199.08205632 152.27789813 199.07201904 C141.62786932 199.05874789 130.9778367 199.05335301 120.3278017 199.04751682 C103.5518574 199.03811603 86.7759424 199.01819297 70 199 C70 159.73 70 120.46 70 80 C126.5625 79.625 126.5625 79.625 144.40454102 79.52197266 C149.6947658 79.48205177 149.6947658 79.48205177 154.98497009 79.43954468 C157.33630502 79.42189051 159.68767068 79.40807168 162.03904724 79.39730835 C165.60632258 79.38022784 169.17331018 79.3508757 172.74047852 79.31884766 C173.78328507 79.31667551 174.82609163 79.31450336 175.90049839 79.3122654 C184.89718541 79.28663076 184.89718541 79.28663076 192.875 75.5625 C196.14621653 71.01914371 195.22369826 65.01688959 195.25 59.6875 C195.270625 58.65431641 195.29125 57.62113281 195.3125 56.55664062 C195.42465198 48.78593503 195.42465198 48.78593503 192 42 C185.18993059 37.86292412 177.80529877 38.59898069 170.06860352 38.65942383 C168.55034909 38.66027085 167.03209344 38.65979349 165.51383972 38.65809631 C161.40683863 38.65723787 157.300102 38.67483905 153.1931622 38.69581819 C148.89571055 38.71461023 144.5982524 38.71633742 140.30076599 38.71989441 C132.16943474 38.72920746 124.03822493 38.7538112 115.90694708 38.78394288 C106.64700226 38.81750995 97.38705155 38.83397869 88.12706101 38.84902918 C69.08463857 38.88036143 50.04232906 38.93310751 31 39 C31.54003662 39.32798584 32.08007324 39.65597168 32.63647461 39.99389648 C35.07104502 41.47363053 37.50428677 42.95553541 39.9375 44.4375 C40.78763672 44.95376953 41.63777344 45.47003906 42.51367188 46.00195312 C43.32255859 46.49501953 44.13144531 46.98808594 44.96484375 47.49609375 C46.08814087 48.17949829 46.08814087 48.17949829 47.23413086 48.87670898 C49 50 49 50 50 51 C50.10178899 52.34929134 50.13517262 53.70383074 50.14044189 55.0569458 C50.14615204 55.93143372 50.15186218 56.80592163 50.15774536 57.70690918 C50.15942215 59.15764832 50.15942215 59.15764832 50.16113281 60.63769531 C50.16609772 61.65083801 50.17106262 62.66398071 50.17617798 63.70782471 C50.19085591 67.08126494 50.19761452 70.45465799 50.203125 73.828125 C50.20887632 76.17209881 50.21463406 78.51607261 50.22039795 80.86004639 C50.23092698 85.78983785 50.2367557 90.71961293 50.24023438 95.64941406 C50.24569213 101.94038957 50.2696536 108.23114567 50.29820633 114.52205276 C50.31692266 119.37278857 50.32204331 124.22347279 50.32357025 129.07424164 C50.3265822 131.39127539 50.33456098 133.70830856 50.34775543 136.0253067 C50.4485082 155.09541495 49.98679061 172.37500548 36.15625 187.03125 C25.96587916 196.33550164 11.37846657 199.1400421 -1.9921875 199.16113281 C-2.75915451 199.16609772 -3.52612152 199.17106262 -4.31632996 199.17617798 C-6.83589605 199.19069507 -9.35539907 199.1975861 -11.875 199.203125 C-12.74349579 199.20595238 -13.61199158 199.20877975 -14.50680542 199.21169281 C-19.10821838 199.22664744 -23.70960032 199.23589888 -28.31103516 199.24023438 C-33.02330084 199.24569576 -37.73527419 199.26968499 -42.44744873 199.29820633 C-46.10586323 199.31699605 -49.76420982 199.32204703 -53.42266846 199.32357025 C-55.1575072 199.32656353 -56.89234573 199.33447687 -58.62713623 199.34775543 C-77.04156437 199.4785799 -93.74671285 197.84485548 -107.73828125 184.578125 C-119.52859822 171.13838545 -119.41946741 154.05839967 -119.1875 137.25 C-119.125625 130.8975 -119.06375 124.545 -119 118 C-103.16 118 -87.32 118 -71 118 C-70.75 130.5 -70.75 130.5 -70.70214844 134.39257812 C-70.49704431 141.33157453 -69.78225912 146.12349 -66 152 C-61.86427641 155.20518578 -57.8751158 156.11302493 -52.72558594 156.16113281 C-51.89081726 156.17074036 -51.05604858 156.1803479 -50.19598389 156.19024658 C-49.30115295 156.19449646 -48.40632202 156.19874634 -47.484375 156.203125 C-46.55457825 156.20882507 -45.62478149 156.21452515 -44.66680908 156.22039795 C-42.69992201 156.22983571 -40.73301921 156.23637707 -38.76611328 156.24023438 C-35.77478011 156.24991977 -32.78414019 156.28094652 -29.79296875 156.3125 C-27.87760823 156.31903269 -25.96224281 156.32428212 -24.046875 156.328125 C-23.16014099 156.3404718 -22.27340698 156.3528186 -21.35980225 156.36553955 C-15.56419671 156.34501365 -11.2761825 155.45148563 -6 153 C1.39816208 145.21246096 0.28553914 132.28924348 0.22705078 122.2668457 C0.22648523 120.92533883 0.22680604 119.58383134 0.22793579 118.24232483 C0.22850468 114.63559761 0.21682644 111.02900607 0.20278788 107.42231011 C0.19020229 103.64004233 0.18910389 99.85777072 0.18673706 96.07548523 C0.18054513 88.92887968 0.16416559 81.78233604 0.14403808 74.63575763 C0.1216075 66.4929818 0.11066773 58.35020286 0.10064721 50.20740378 C0.07979708 33.47156641 0.04466605 16.73579113 0 0 Z M120 113 C120 128.84 120 144.68 120 161 C132.24607316 161.08734399 132.24607316 161.08734399 144.4921875 161.14648438 C149.49130884 161.16437642 154.49026439 161.18547972 159.48925781 161.22631836 C163.52227082 161.25905713 167.55510588 161.27688343 171.58824158 161.28463173 C173.12233783 161.29014931 174.65642501 161.30092355 176.19044495 161.31719017 C187.45985038 161.53393986 187.45985038 161.53393986 198 158 C202.91929548 151.81120892 202.18300401 144.71828177 202.1875 137.1875 C202.19974609 136.11951172 202.21199219 135.05152344 202.22460938 133.95117188 C202.23516933 128.25935768 202.09706952 123.32554767 200 118 C196.11268356 114.11268356 193.21316494 113.08378626 187.82354736 112.87974548 C185.94490997 112.8830764 185.94490997 112.8830764 184.02832031 112.88647461 C183.3352327 112.88632858 182.64214508 112.88618256 181.92805481 112.8860321 C179.64471267 112.88672693 177.36145283 112.89449915 175.078125 112.90234375 C173.49200485 112.90420946 171.90588412 112.90563264 170.31976318 112.90663147 C166.15063885 112.91044462 161.9815495 112.92026463 157.81243896 112.93133545 C152.80722273 112.94337668 147.80199477 112.94795754 142.79676819 112.95378876 C135.19782115 112.96347703 127.59895083 112.98264199 120 113 Z " fill="#399CD2" transform="translate(255,74)"/>
<path d="M0 0 C2.20570851 -0.00968797 4.41047736 -0.04072695 6.6159668 -0.07226562 C8.03327902 -0.07879854 9.45059785 -0.08404788 10.86791992 -0.08789062 C12.14642822 -0.09723633 13.42493652 -0.10658203 14.7421875 -0.11621094 C19.55473513 0.35136872 23.44816051 1.67005185 27.28588867 4.74023438 C30.58750799 9.14239347 29.47189428 15.05475756 29.41088867 20.24023438 C24.79088867 20.24023438 20.17088867 20.24023438 15.41088867 20.24023438 C14.91588867 17.27023437 14.91588867 17.27023437 14.41088867 14.24023438 C12.03472881 13.05215444 10.55971447 13.11108916 7.91088867 13.10742188 C7.02401367 13.10613281 6.13713867 13.10484375 5.22338867 13.10351562 C4.29526367 13.10738281 3.36713867 13.11125 2.41088867 13.11523438 C1.48276367 13.11136719 0.55463867 13.1075 -0.40161133 13.10351562 C-1.73192383 13.10544922 -1.73192383 13.10544922 -3.08911133 13.10742188 C-4.31114258 13.10911377 -4.31114258 13.10911377 -5.55786133 13.11083984 C-7.65762084 13.11221935 -7.65762084 13.11221935 -9.58911133 14.24023438 C-11.06918875 18.68046664 -10.77348372 23.02698735 -10.77661133 27.67773438 C-10.78885742 28.63228516 -10.80110352 29.58683594 -10.8137207 30.5703125 C-10.8156543 31.49134766 -10.81758789 32.41238281 -10.81958008 33.36132812 C-10.82574341 34.6209436 -10.82574341 34.6209436 -10.83203125 35.90600586 C-10.68688255 38.6317412 -10.68688255 38.6317412 -8.58911133 42.24023438 C-0.66911133 42.24023438 7.25088867 42.24023438 15.41088867 42.24023438 C15.74088867 39.93023437 16.07088867 37.62023437 16.41088867 35.24023438 C11.79088867 35.24023438 7.17088867 35.24023438 2.41088867 35.24023438 C2.41088867 31.61023438 2.41088867 27.98023438 2.41088867 24.24023438 C11.32088867 24.24023438 20.23088867 24.24023438 29.41088867 24.24023438 C29.47276367 27.76710938 29.53463867 31.29398437 29.59838867 34.92773438 C29.63935669 36.58228638 29.63935669 36.58228638 29.68115234 38.27026367 C29.75774554 47.274494 29.75774554 47.274494 26.41088867 51.24023438 C20.55003031 56.71036885 12.21894067 55.45886228 4.71069336 55.48046875 C2.68064856 55.49014024 0.65163252 55.52118809 -1.37817383 55.55273438 C-15.39722711 55.60825538 -15.39722711 55.60825538 -21.58911133 52.24023438 C-26.78821901 45.90382188 -25.80795109 37.89776204 -25.8293457 30.13330078 C-25.83901675 28.01098919 -25.87004885 25.88966136 -25.90161133 23.76757812 C-25.95749662 16.68475604 -25.91501784 10.61422705 -22.58911133 4.24023438 C-16.01961229 -0.98167512 -7.96740166 0.02117816 0 0 Z " fill="#282828" transform="translate(481.589111328125,317.759765625)"/>
<path d="M0 0 C1.13758003 -0.00855011 1.13758003 -0.00855011 2.29814148 -0.01727295 C3.90276702 -0.02671356 5.50741187 -0.03325321 7.11206055 -0.03710938 C9.5548733 -0.04679827 11.99683836 -0.0778224 14.43945312 -0.109375 C16.00129711 -0.11590727 17.56314709 -0.12115686 19.125 -0.125 C19.8502034 -0.1373468 20.5754068 -0.1496936 21.32258606 -0.16241455 C26.04470796 -0.14189362 29.27474146 0.66294762 33.26171875 3.203125 C36.30596562 7.76949531 35.38955041 11.77027959 35.26171875 17.203125 C30.97171875 17.203125 26.68171875 17.203125 22.26171875 17.203125 C21.76671875 14.728125 21.76671875 14.728125 21.26171875 12.203125 C17.97007046 12.17417275 14.67845476 12.1563427 11.38671875 12.140625 C10.44957031 12.13224609 9.51242187 12.12386719 8.546875 12.11523438 C7.65097656 12.11201172 6.75507812 12.10878906 5.83203125 12.10546875 C5.00461426 12.10023193 4.17719727 12.09499512 3.32470703 12.08959961 C1.19760118 12.06960362 1.19760118 12.06960362 -0.73828125 13.203125 C-1.39600553 16.23246991 -1.39600553 16.23246991 -1.73828125 19.203125 C-0.422229 19.31587769 -0.422229 19.31587769 0.92041016 19.4309082 C4.19778904 19.7175651 7.4737993 20.01516641 10.74951172 20.32006836 C12.16318273 20.44942071 13.57725274 20.57449098 14.99169922 20.69506836 C17.03344595 20.86989023 19.07322685 21.06043908 21.11328125 21.25390625 C22.33869629 21.36387939 23.56411133 21.47385254 24.82666016 21.5871582 C28.49200614 22.24441961 31.08647333 23.27279576 34.26171875 25.203125 C37.15763372 29.54699745 36.66813189 33.46606326 36.69921875 38.578125 C36.73208984 39.52429688 36.76496094 40.47046875 36.79882812 41.4453125 C36.8349121 46.11654675 36.8132677 48.45195885 33.984375 52.3046875 C29.34481532 55.53973198 24.98975452 55.37374997 19.4609375 55.40625 C18.70633743 55.41195007 17.95173737 55.41765015 17.17427063 55.42352295 C15.57981763 55.43295119 13.98534534 55.43949827 12.39086914 55.44335938 C9.96791053 55.45305024 7.54580611 55.484087 5.12304688 55.515625 C3.56901542 55.52215745 2.01497793 55.52740697 0.4609375 55.53125 C-0.61442009 55.5497702 -0.61442009 55.5497702 -1.71150208 55.56866455 C-6.84766609 55.54623704 -10.25639098 54.52461827 -14.73828125 52.203125 C-18.03476896 47.987944 -16.8587049 42.26091826 -16.73828125 37.203125 C-12.11828125 37.203125 -7.49828125 37.203125 -2.73828125 37.203125 C-2.73828125 39.183125 -2.73828125 41.163125 -2.73828125 43.203125 C5.18171875 42.873125 13.10171875 42.543125 21.26171875 42.203125 C21.26171875 39.893125 21.26171875 37.583125 21.26171875 35.203125 C19.09517893 34.91051761 16.92847638 34.61911518 14.76171875 34.328125 C14.09479004 34.23644043 13.42786133 34.14475586 12.74072266 34.05029297 C9.12414269 33.55915248 5.51193636 33.11673663 1.87890625 32.765625 C1.16927734 32.6919873 0.45964844 32.61834961 -0.27148438 32.54248047 C-2.27232271 32.33744591 -4.27482002 32.14879901 -6.27734375 31.9609375 C-10.12742881 31.11791662 -11.94387538 29.93520211 -14.73828125 27.203125 C-16.49049193 23.69870363 -16.05011662 19.75228069 -16.11328125 15.890625 C-16.15066406 15.03533203 -16.18804688 14.18003906 -16.2265625 13.29882812 C-16.28938727 8.79289609 -16.22689973 6.83963636 -13.40234375 3.16015625 C-9.04457519 -0.04107842 -5.2024206 0.03023434 0 0 Z " fill="#272727" transform="translate(608.73828125,317.796875)"/>
<path d="M0 0 C2.20570851 -0.00968797 4.41047736 -0.04072695 6.6159668 -0.07226562 C8.03327902 -0.07879854 9.45059785 -0.08404788 10.86791992 -0.08789062 C12.14642822 -0.09723633 13.42493652 -0.10658203 14.7421875 -0.11621094 C20.31902176 0.42562562 24.01607409 1.69812012 27.81518555 5.8984375 C29.79283894 10.04013268 29.99038811 13.18289877 29.94213867 17.70898438 C29.94596558 18.50751831 29.94979248 19.30605225 29.95373535 20.12878418 C29.95644579 21.80966459 29.94914556 23.49058781 29.93237305 25.17138672 C29.91094868 27.73305984 29.93220188 30.29192894 29.95776367 32.85351562 C29.95512024 34.49284468 29.94999493 36.13217201 29.94213867 37.77148438 C29.9502356 38.53102417 29.95833252 39.29056396 29.9666748 40.07312012 C29.87672833 45.21616156 28.79652603 48.16089435 25.41088867 52.24023438 C19.21466591 56.37104955 11.92205978 55.45971662 4.71069336 55.48046875 C2.68064856 55.49014024 0.65163252 55.52118809 -1.37817383 55.55273438 C-18.10138946 55.61896493 -18.10138946 55.61896493 -23.58911133 50.30273438 C-26.61734092 44.05701083 -25.81188886 37.00513461 -25.8293457 30.22387695 C-25.8390347 27.9457525 -25.8700729 25.66853737 -25.90161133 23.390625 C-25.90814408 21.92773969 -25.91339348 20.46484797 -25.91723633 19.00195312 C-25.92958313 18.32879562 -25.94192993 17.65563812 -25.95465088 16.96208191 C-25.93140745 11.94918307 -24.8675253 8.61333026 -22.58911133 4.24023438 C-15.89663165 -0.90782692 -8.04284193 0.02137869 0 0 Z M-10.58911133 14.24023438 C-12.58345293 18.22891758 -11.77396169 23.2925752 -11.77661133 27.67773438 C-11.78885742 28.74056641 -11.80110352 29.80339844 -11.8137207 30.8984375 C-11.8156543 31.91744141 -11.81758789 32.93644531 -11.81958008 33.98632812 C-11.82368896 34.9214624 -11.82779785 35.85659668 -11.83203125 36.82006836 C-11.75396477 39.50085214 -11.75396477 39.50085214 -9.58911133 42.24023438 C-7.20301578 42.68946329 -7.20301578 42.68946329 -4.43286133 42.60351562 C-3.41063477 42.60287109 -2.3884082 42.60222656 -1.33520508 42.6015625 C0.27161133 42.57739258 0.27161133 42.57739258 1.91088867 42.55273438 C2.98209961 42.55595703 4.05331055 42.55917969 5.15698242 42.5625 C10.84274714 42.91103566 10.84274714 42.91103566 15.41088867 40.24023438 C15.92174291 36.11473025 15.82765559 31.95626266 15.84838867 27.80273438 C15.88125977 26.64451172 15.91413086 25.48628906 15.94799805 24.29296875 C15.95508789 23.18373047 15.96217773 22.07449219 15.96948242 20.93164062 C15.98293701 19.91271729 15.9963916 18.89379395 16.01025391 17.84399414 C15.64859409 15.04394847 15.64859409 15.04394847 13.13012695 13.40722656 C10.60006031 12.32141954 9.05521289 11.86472029 6.34448242 11.87695312 C5.61165039 11.87759766 4.87881836 11.87824219 4.1237793 11.87890625 C2.99746094 11.90307617 2.99746094 11.90307617 1.84838867 11.92773438 C1.09364258 11.92451172 0.33889648 11.92128906 -0.4387207 11.91796875 C-5.83819668 11.95967258 -5.83819668 11.95967258 -10.58911133 14.24023438 Z " fill="#282828" transform="translate(420.589111328125,317.759765625)"/>
<path d="M0 0 C2.17710691 0.00315523 4.35284623 -0.02031817 6.52978516 -0.0456543 C13.61830497 -0.07839127 19.89203291 -0.04486926 26.31494141 3.31567383 C31.84736517 10.09735457 30.49838298 19.44395489 30.50244141 27.69067383 C30.5146875 28.99262695 30.52693359 30.29458008 30.53955078 31.63598633 C30.54148437 32.89926758 30.54341797 34.16254883 30.54541016 35.46411133 C30.54951904 36.61057129 30.55362793 37.75703125 30.55786133 38.93823242 C30.2486318 43.23761064 29.65362869 47.56478078 26.98291016 51.05786133 C20.05992885 56.35512935 12.90706859 55.50197801 4.50488281 55.50097656 C2.45307567 55.50315985 0.40180968 55.52133599 -1.64990234 55.5402832 C-2.95830078 55.5422168 -4.26669922 55.54415039 -5.61474609 55.54614258 C-6.80310059 55.55025146 -7.99145508 55.55436035 -9.21582031 55.55859375 C-14.07657707 55.21823816 -18.23736372 54.49668807 -22.06005859 51.37817383 C-26.44784801 45.80905649 -24.98888104 36.98042198 -25.03515625 30.18359375 C-25.05170915 28.40188529 -25.07899067 26.62024307 -25.1171875 24.83886719 C-25.17211574 22.26177753 -25.19385253 19.68623971 -25.20849609 17.10864258 C-25.23116547 16.31781784 -25.25383484 15.5269931 -25.27719116 14.71220398 C-25.26223839 10.77389184 -24.94035378 8.08654987 -22.52734375 4.89111328 C-16.05201248 -0.97628661 -8.23930955 -0.02499004 0 0 Z M-9.68505859 13.31567383 C-11.80195453 17.54946569 -10.86998865 23.16407165 -10.87255859 27.81567383 C-10.88480469 28.98227539 -10.89705078 30.14887695 -10.90966797 31.35083008 C-10.91160156 32.46329102 -10.91353516 33.57575195 -10.91552734 34.72192383 C-10.91963623 35.74608398 -10.92374512 36.77024414 -10.92797852 37.82543945 C-10.93416075 40.48998137 -10.93416075 40.48998137 -8.68505859 42.31567383 C-6.25907908 42.59355051 -6.25907908 42.59355051 -3.45849609 42.51098633 C-2.42724609 42.50454102 -1.39599609 42.4980957 -0.33349609 42.49145508 C0.74673828 42.47469727 1.82697266 42.45793945 2.93994141 42.44067383 C4.57189453 42.42713867 4.57189453 42.42713867 6.23681641 42.41333008 C8.92974292 42.38970792 11.62223396 42.35676939 14.31494141 42.31567383 C15.76611128 39.03865267 16.5696114 36.43077657 16.58056641 32.84692383 C16.58314453 32.02836914 16.58572266 31.20981445 16.58837891 30.36645508 C16.58064453 29.52469727 16.57291016 28.68293945 16.56494141 27.81567383 C16.57267578 26.97391602 16.58041016 26.1321582 16.58837891 25.26489258 C16.58373747 19.03884983 16.58373747 19.03884983 14.31494141 13.31567383 C10.48306629 12.03838212 6.86785824 12.17057097 2.87744141 12.19067383 C1.73178711 12.18487305 1.73178711 12.18487305 0.56298828 12.17895508 C-0.17757813 12.18024414 -0.91814453 12.1815332 -1.68115234 12.18286133 C-2.68940063 12.18455322 -2.68940063 12.18455322 -3.71801758 12.1862793 C-5.84129781 12.32595145 -7.66898724 12.62961748 -9.68505859 13.31567383 Z " fill="#292929" transform="translate(312.68505859375,317.684326171875)"/>
<path d="M0 0 C13 0 13 0 16.578125 2.7109375 C17.50868123 3.90214865 18.39899476 5.12571662 19.25 6.375 C20.23569993 7.66634205 21.22268937 8.95670076 22.2109375 10.24609375 C22.67983398 10.88530762 23.14873047 11.52452148 23.63183594 12.18310547 C25.560858 14.74480822 27.69964423 17.08389602 29.875 19.4375 C33.33623554 23.23128562 36.65119381 27.09305944 40 31 C40.33 20.77 40.66 10.54 41 0 C45.62 0 50.24 0 55 0 C55 18.15 55 36.3 55 55 C43 55 43 55 40.17578125 53.19921875 C39.56089844 52.37035156 38.94601562 51.54148437 38.3125 50.6875 C37.59578125 49.77226562 36.8790625 48.85703125 36.140625 47.9140625 C35.08101563 46.47160156 35.08101563 46.47160156 34 45 C32.5296641 43.18032898 31.05044334 41.36780188 29.5625 39.5625 C27.3040625 36.8090625 27.3040625 36.8090625 25 34 C21.7 30.37 18.4 26.74 15 23 C14.67 33.56 14.34 44.12 14 55 C9.38 55 4.76 55 0 55 C0 36.85 0 18.7 0 0 Z " fill="#292929" transform="translate(226,318)"/>
<path d="M0 0 C15.18 0 30.36 0 46 0 C46 3.96 46 7.92 46 12 C35.44 12 24.88 12 14 12 C14 14.97 14 17.94 14 21 C23.57 21 33.14 21 43 21 C43 24.63 43 28.26 43 32 C33.43 32 23.86 32 14 32 C14 35.63 14 39.26 14 43 C24.89 43 35.78 43 47 43 C47 46.96 47 50.92 47 55 C31.49 55 15.98 55 0 55 C0 36.85 0 18.7 0 0 Z " fill="#2B2B2B" transform="translate(55,318)"/>
<path d="M0 0 C4.62 0 9.24 0 14 0 C14 6.6 14 13.2 14 20 C22.25 20 30.5 20 39 20 C39 13.4 39 6.8 39 0 C43.62 0 48.24 0 53 0 C53 18.15 53 36.3 53 55 C48.38 55 43.76 55 39 55 C39 47.74 39 40.48 39 33 C30.75 33 22.5 33 14 33 C14 40.26 14 47.52 14 55 C9.38 55 4.76 55 0 55 C0 36.85 0 18.7 0 0 Z " fill="#2A2A2A" transform="translate(166,318)"/>
<path d="M0 0 C2.03228685 0.00315497 4.06310792 -0.0203206 6.09521484 -0.0456543 C13.12334216 -0.04913702 18.85913713 0.0790273 25.16943359 3.31567383 C29.79395093 8.98443702 29.27327836 15.35807461 29.16943359 22.31567383 C24.54943359 22.31567383 19.92943359 22.31567383 15.16943359 22.31567383 C15.01474609 20.64504883 15.01474609 20.64504883 14.85693359 18.94067383 C14.63005859 17.74442383 14.40318359 16.54817383 14.16943359 15.31567383 C11.09799227 13.26804628 10.47092401 13.06560433 7.00927734 13.08520508 C5.81915039 13.08810547 5.81915039 13.08810547 4.60498047 13.09106445 C3.36844727 13.10943359 3.36844727 13.10943359 2.10693359 13.12817383 C0.86459961 13.12914062 0.86459961 13.12914062 -0.40283203 13.13012695 C-4.76556627 13.03173301 -4.76556627 13.03173301 -8.83056641 14.31567383 C-8.83056641 23.22567383 -8.83056641 32.13567383 -8.83056641 41.31567383 C-4.98470045 42.59762915 -1.33734044 42.49982928 2.66943359 42.50317383 C3.44158203 42.51541992 4.21373047 42.52766602 5.00927734 42.5402832 C8.91769839 42.55044374 10.84585288 42.53139431 14.16943359 40.31567383 C14.74692162 38.35205519 14.74692162 38.35205519 14.85693359 36.19067383 C14.96005859 34.91192383 15.06318359 33.63317383 15.16943359 32.31567383 C19.78943359 32.31567383 24.40943359 32.31567383 29.16943359 32.31567383 C29.55903773 46.53622491 29.55903773 46.53622491 25.87646484 50.81958008 C19.20411527 56.84013201 10.73418985 55.49886343 2.29443359 55.50317383 C1.04017578 55.51541992 -0.21408203 55.52766602 -1.50634766 55.5402832 C-16.48167496 55.56405356 -16.48167496 55.56405356 -21.47216797 50.78710938 C-24.58909386 46.88247121 -24.55568563 43.25532265 -24.49462891 38.40942383 C-24.49941254 37.5664978 -24.50419617 36.72357178 -24.50912476 35.85510254 C-24.51251413 34.08005904 -24.50337919 32.30495231 -24.48242188 30.5300293 C-24.45563927 27.8230384 -24.48219901 25.12019302 -24.51416016 22.41333008 C-24.51085588 20.68285224 -24.50444928 18.95237696 -24.49462891 17.22192383 C-24.50475006 16.41863647 -24.51487122 15.61534912 -24.52529907 14.78771973 C-24.44346461 10.83644871 -24.08357044 8.08906108 -21.6640625 4.8840332 C-15.34955328 -0.83961293 -8.09156646 -0.02627764 0 0 Z " fill="#2A2A2A" transform="translate(130.83056640625,317.684326171875)"/>
<path d="M0 0 C14.19 0 28.38 0 43 0 C43 14.19 43 28.38 43 43 C28.81 43 14.62 43 0 43 C0 28.81 0 14.62 0 0 Z " fill="#242424" transform="translate(198,74)"/>
<path d="M0 0 C14.85 0 29.7 0 45 0 C45 3.96 45 7.92 45 12 C34.77 12 24.54 12 14 12 C14 14.97 14 17.94 14 21 C23.24 21 32.48 21 42 21 C42 24.63 42 28.26 42 32 C32.76 32 23.52 32 14 32 C14 35.63 14 39.26 14 43 C24.56 43 35.12 43 46 43 C46 46.96 46 50.92 46 55 C30.82 55 15.64 55 0 55 C0 36.85 0 18.7 0 0 Z " fill="#282828" transform="translate(541,318)"/>
<path d="M0 0 C16.83 0 33.66 0 51 0 C51 4.29 51 8.58 51 13 C45.06 13 39.12 13 33 13 C33 26.86 33 40.72 33 55 C28.05 55 23.1 55 18 55 C18 41.14 18 27.28 18 13 C12.06 13 6.12 13 0 13 C0 8.71 0 4.42 0 0 Z " fill="#313131" transform="translate(0,318)"/>
<path d="M0 0 C11.88 0 23.76 0 36 0 C36 11.55 36 23.1 36 35 C24.12 35 12.24 35 0 35 C0 23.45 0 11.9 0 0 Z " fill="#323232" transform="translate(240,24)"/>
<path d="M0 0 C4.95 0 9.9 0 15 0 C15 13.86 15 27.72 15 42 C24.24 42 33.48 42 43 42 C43 46.29 43 50.58 43 55 C28.81 55 14.62 55 0 55 C0 36.85 0 18.7 0 0 Z " fill="#242424" transform="translate(349,318)"/>
<path d="M0 0 C4.62 0 9.24 0 14 0 C14 18.15 14 36.3 14 55 C9.38 55 4.76 55 0 55 C0 36.85 0 18.7 0 0 Z " fill="#272727" transform="translate(519,318)"/>
<path d="M0 0 C8.25 0 16.5 0 25 0 C25 8.25 25 16.5 25 25 C16.75 25 8.5 25 0 25 C0 16.75 0 8.5 0 0 Z " fill="#424242" transform="translate(198,0)"/>
</svg>
